/* XPM */
static char *_abe594911584049e7570ce1ad8a6e3elxBb7vNWx6EC3pth[] = {
/* columns rows colors chars-per-pixel */
"32 32 243 2 ",
"   c #CACACA",
".  c black",
"X  c gray9",
"o  c gray35",
"O  c #494949",
"+  c #D5D5D5",
"@  c gray60",
"#  c #6D6D6D",
"$  c gray80",
"%  c #909090",
"&  c #717171",
"*  c #C8C8C8",
"=  c gray76",
"-  c #282828",
";  c gray22",
":  c gray58",
">  c gray21",
",  c #232323",
"<  c #727272",
"1  c #2A2A2A",
"2  c #111111",
"3  c #9F9F9F",
"4  c #C5C5C5",
"5  c gray36",
"6  c #0C0C0C",
"7  c #5A5A5A",
"8  c #A4A4A4",
"9  c gray66",
"0  c gray53",
"q  c gray65",
"w  c LightGray",
"e  c gray32",
"r  c #090909",
"t  c #535353",
"y  c #4B4B4B",
"u  c #0B0B0B",
"i  c #7E7E7E",
"p  c gray62",
"a  c #272727",
"s  c #010101",
"d  c gray25",
"f  c gray48",
"g  c gray3",
"h  c gray1",
"j  c #9B9B9B",
"k  c gray59",
"l  c gray16",
"z  c #898989",
"x  c gray81",
"c  c gray79",
"v  c #585858",
"b  c #B4B4B4",
"n  c #C1C1C1",
"m  c #838383",
"M  c #929292",
"N  c #CDCDCD",
"B  c gray12",
"V  c #DADADA",
"C  c gray47",
"Z  c gray52",
"A  c gray",
"S  c gray2",
"D  c #4E4E4E",
"F  c gray55",
"G  c #CBCBCB",
"H  c #8D8D8D",
"J  c gray28",
"K  c gray83",
"L  c gray84",
"P  c #D0D0D0",
"I  c gray67",
"U  c #373737",
"Y  c #5D5D5D",
"T  c #818181",
"R  c gray8",
"E  c #252525",
"W  c #8E8E8E",
"Q  c gray30",
"!  c #323232",
"~  c #BBBBBB",
"^  c #343434",
"/  c gray69",
"(  c gray73",
")  c #414141",
"_  c #797979",
"`  c #4C4C4C",
"'  c #0E0E0E",
"]  c #656565",
"[  c #131313",
"{  c #AFAFAF",
"}  c #646464",
"|  c gray27",
" . c #565656",
".. c gray78",
"X. c #747474",
"o. c gray6",
"O. c gray18",
"+. c #060606",
"@. c #040404",
"#. c gray26",
"$. c #020202",
"%. c #555555",
"&. c #B7B7B7",
"*. c gray42",
"=. c #D2D2D2",
"-. c gray74",
";. c #DDDDDD",
":. c gray57",
">. c gray11",
",. c #3F3F3F",
"<. c #1D1D1D",
"1. c gray82",
"2. c gray44",
"3. c #D7D7D7",
"4. c gray90",
"5. c gray38",
"6. c #B2B2B2",
"7. c #E1E1E1",
"8. c DimGray",
"9. c #A9A9A9",
"0. c #1B1B1B",
"q. c #767676",
"w. c gray31",
"e. c gray75",
"r. c #191919",
"t. c gray85",
"y. c #C6C6C6",
"u. c gray24",
"i. c #B9B9B9",
"p. c gray23",
"a. c gray93",
"s. c #AAAAAA",
"d. c #EAEAEA",
"f. c gray64",
"g. c #ACACAC",
"h. c #E4E4E4",
"j. c #6F6F6F",
"k. c #606060",
"l. c #626262",
"z. c #9A9A9A",
"x. c gray33",
"c. c #9D9D9D",
"v. c #2C2C2C",
"b. c gray56",
"n. c gray15",
"m. c #959595",
"M. c #151515",
"N. c #393939",
"B. c #989898",
"V. c gray40",
"C. c gray91",
"Z. c #6C6C6C",
"A. c #F1F1F1",
"S. c #F4F4F4",
"D. c #777777",
"F. c #434343",
"G. c #939393",
"H. c gray39",
"J. c gray68",
"K. c #3E3E3E",
"L. c #6A6A6A",
"P. c #1E1E1E",
"I. c #979797",
"U. c gray10",
"Y. c #E9E9E9",
"T. c #8B8B8B",
"R. c #EFEFEF",
"E. c #848484",
"W. c #E7E7E7",
"Q. c #676767",
"!. c #888888",
"~. c gray5",
"^. c #B6B6B6",
"/. c gray14",
"(. c #101010",
"). c gray96",
"_. c #AEAEAE",
"`. c gray94",
"'. c #ECECEC",
"]. c #A7A7A7",
"[. c gray4",
"{. c gray46",
"}. c #484848",
"|. c gray92",
" X c gray95",
".X c #F8F8F8",
"XX c #515151",
"oX c #505050",
"OX c #DFDFDF",
"+X c #202020",
"@X c gray63",
"#X c #E6E6E6",
"$X c #313131",
"%X c gray71",
"&X c #B1B1B1",
"*X c gray70",
"=X c gray49",
"-X c #2D2D2D",
";X c #FDFDFD",
":X c gray99",
">X c gray87",
",X c #181818",
"<X c #3A3A3A",
"1X c #808080",
"2X c #5B5B5B",
"3X c #070707",
"4X c gray86",
"5X c gray97",
"6X c #F6F6F6",
"7X c #EEEEEE",
"8X c gray45",
"9X c #FBFBFB",
"0X c #F9F9F9",
"qX c gray34",
"wX c #C0C0C0",
"eX c #3C3C3C",
"rX c #7B7B7B",
"tX c #2F2F2F",
"yX c #FEFEFE",
"uX c gray13",
"iX c gray98",
"pX c #A0A0A0",
"aX c #464646",
"sX c #222222",
"dX c #E2E2E2",
"fX c #686868",
"gX c gray20",
"hX c #A5A5A5",
"jX c #C3C3C3",
"kX c gray72",
"lX c #868686",
"zX c #CECECE",
"xX c gray89",
"cX c #5F5F5F",
"vX c gray29",
"bX c gray51",
"nX c gray19",
"mX c #F3F3F3",
"MX c #353535",
"NX c #A2A2A2",
"BX c #D8D8D8",
"VX c gray61",
"CX c gainsboro",
/* pixels */
"  . X o X O + @ # $   % & * = - ; : > . , < 1 2 3 4 5 . 6 7 8 9 ",
"0 q w e r t y . u i p a s d f g h j k l z x c v b n m M N < . . ",
"B V + C Z A f S . ; M D B F G H J K L % % P I 6 U i Y c K T R E ",
"2 W Q ! ~ N * % ^ / L ( ) 0 * / , _ ~ ` ' ] v . [ { 8 n M } b N ",
"q | s h  .{ ..X.o.O.m v S 6 Y # +.@.5 #.$.%.&.d *.=.G } r - -.;.",
"  :.>.. s ,.3 t <.H 1.=.2.< 3.4.%  .$ =.5.6.7.* 8.N 9.2 . 0.q.w.",
"4 e.q.R r.p t.y.u.p t.i.,.p.9.a.s.5.=.d.f.g.h.8 @.j.k.. +.l.%.. ",
"A ..G z.x.9.c.R . v.b.} +.h n.m.$.. ! 9.>.M.z N.. 1 @ ) Q   F . ",
"J e.B.M.2 M y.V.X.C.a.h.Z.g.A.S.D.$.F.G.o.$.y x.. :.;.y.H.J.6.K.",
"s Z.L.O.J.;./ P.' I.m U.. K.P Y.B.T.R.S.E.t V W.Q.7.7.!.$.~.V...",
") n ^.| k F /.@.J = H ~.M.J c.#.(.> G )._.{ `.'.8.e.L ,.. 1 ].  ",
"6._.F.[.{.9.}.0 W.|.n V.c  X.XXX. g # m U.oXOXf.+.+X2.' g F 1.$ ",
"x.| ' {.V @X^ Q.A }.R (.-.#XP Z E.e.x $X. o.X.R . > %XF e N w &X",
"q *XH.= I.R +.Z.=X. 2 D F -XR $.N ;X:Xz - k >Xp.,X4 W.  <Xv B.}.",
"x 1XX 2X-X3Xe Y.4Xu.: R.1.R . . G.;XY.B.i.5X6X{ T.'.Y.1Xh $.F.T ",
"@ S 2 s.I.H d.7X8Xb.6X9XA.5 %.E.k P.@.g i.0X'.qXV.'.J.o.. u.wXP ",
"eX[.E.OXrX{.4.D . tX-.i +XF yXyXR.@.. . XXE.uX. . C J s <.i.L P ",
"wX1Xw f.~.+Xt . $.D.e . . D iXyXiX .o 3 4XeX. . ] Y.h.m.< c + { ",
"pXeX@XaXh *.J.S l.Y.j $.S J g._ }.< 7.iX0XpXsXQ.>X'.dXq.,XU fX# ",
"sX$.D <.gXw Y.C C.S.w oXhX4X{.. . <.A 0X>XF ) P 7Xt.D.r . R X.jX",
". u.kXlX3 4.zXD a.Y.W p .X0Xw 3X$.+X8XD.n.h . sX9.oX[.. (.T.zX$ ",
"M.&Xw G.B.P qX$.J.Q.6 u.Y.6XxXcX9.t.|.m r . r o N = I.vXL.c x c ",
"bXN G ) K.M 6 . O 3X. ~.( ^.x.nX`.6X6XW.2XsXD.xXC.h.;.X.- ] c.y.",
"P N F +.[.N.. . ].nX. h 5 [ . . 5  XmX3.fXv b C.4.x 5.h . . s U ",
"=.q.,X. p.i.d ! 4.i.a 2XW.q.h . . q.C ' . . . MXp 1 s . . . . . ",
"E . . 3Xm.3.= z.7.h.&X* d.xXF $.V.h.N | s . . %.+ =.NXoXu . . . ",
"X . h d wXw c X.>X7.H W 4.C.OXY BXY.C.* ] +X%.G 4X3.w wXT R . . ",
"2.<XC wX$ c D.r 3 e.nXR pX7./ M.& V h.dX= d cX%XK =.x $   7 . . ",
"<.g.3.=.G b.,X. U.5 3X. r.bXtX. s ) VXkX> s . [ %.*X$ P =.VX6 . ",
". F.( b & r.. . [ m.! . +.f Z.+.. . sX=X<.. . . . O.g.+ BX~ tX. ",
"5 fXC -Xh . . . qXN : ' , e.P e . h } x : B . . . s 2.t.CX..O MX",
"dX>XI ~.. . . -X~ ..c lX!.zXx x & Q.jXN G &.Q . . . O.jX0 Q 8 dX"
};
