/* XPM */
static char *_c270828d1fa4624ded0e33aacfdc97aexeWVVy3RByt4X0K[] = {
/* columns rows colors chars-per-pixel */
"32 32 208 2 ",
"   c black",
".  c #101010",
"X  c #5B5B5B",
"o  c #676767",
"O  c #D0D0D0",
"+  c #E1E1E1",
"@  c #DFDFDF",
"#  c gray90",
"$  c gray92",
"%  c #6F6F6F",
"&  c #2C2C2C",
"*  c #010101",
"=  c #2A2A2A",
"-  c DimGray",
";  c #B4B4B4",
":  c #BFBEBE",
">  c #CACACA",
",  c gray86",
"<  c #E7E7E7",
"1  c #EAEAEA",
"2  c #E4E4E4",
"3  c gray47",
"4  c gray10",
"5  c gray1",
"6  c #393939",
"7  c #B1B1B1",
"8  c #B9B8B8",
"9  c #B5B4B4",
"0  c #CDCDCD",
"q  c gray88",
"w  c #EEEEEE",
"e  c gray95",
"r  c #EFEFEF",
"t  c #D7D7D7",
"y  c gray39",
"u  c #111111",
"i  c #070707",
"p  c #868686",
"a  c #B3B2B2",
"s  c #A7A6A5",
"d  c #B7B6B6",
"f  c #CECECE",
"g  c gray89",
"h  c #F3F3F3",
"j  c gray96",
"k  c gray29",
"l  c #060606",
"z  c gray6",
"x  c gray48",
"c  c #BDBDBC",
"v  c #A4A3A3",
"b  c #C8C8C8",
"n  c gray87",
"m  c #F1F1F1",
"M  c gray83",
"N  c gray31",
"B  c gray2",
"V  c gray4",
"C  c gray37",
"Z  c #BCBBBB",
"A  c #A4A3A2",
"S  c #AFAEAE",
"D  c #C0C0C0",
"F  c #E6E6E6",
"G  c gray80",
"H  c #3C3C3C",
"J  c #020202",
"K  c #040404",
"L  c gray77",
"P  c #A9A8A8",
"I  c #C3C3C3",
"U  c gray84",
"Y  c #1D1D1D",
"T  c #484848",
"R  c #A4A4A4",
"E  c #B0AFAF",
"W  c #A8A7A6",
"Q  c #B1B0B0",
"!  c gray73",
"~  c gray79",
"^  c #747474",
"/  c #151515",
"(  c gray20",
")  c gray44",
"_  c #A8A7A7",
"`  c #B4B3B3",
"'  c #B2B1B1",
"]  c gray71",
"[  c #BCBCBC",
"{  c #C1C1C1",
"}  c gray61",
"|  c #777777",
" . c #373737",
".. c #767676",
"X. c #B8B7B7",
"o. c #B7B7B7",
"O. c gray72",
"+. c #BDBCBC",
"@. c #B9B9B9",
"#. c gray57",
"$. c #5A5A5A",
"%. c #131313",
"&. c #2D2D2D",
"*. c gray52",
"=. c gray75",
"-. c #BEBDBD",
";. c gray81",
":. c #D5D5D5",
">. c #DADADA",
",. c gray69",
"<. c gray11",
"1. c #2F2F2F",
"2. c gray",
"3. c #D8D8D8",
"4. c #E9E9E9",
"5. c gray63",
"6. c #282828",
"7. c #353535",
"8. c gray56",
"9. c #9E9D9D",
"0. c #B1B0AF",
"q. c #C3C2C2",
"w. c #C9C8C8",
"e. c #8D8D8D",
"r. c #4E4E4E",
"t. c #161616",
"y. c gray38",
"u. c #9C9B9B",
"i. c #A9A9A8",
"p. c #C1C0C0",
"a. c #9B9B9B",
"s. c gray53",
"d. c #ACABAB",
"f. c gray76",
"g. c gray14",
"h. c gray26",
"j. c #AEADAD",
"k. c #BBBBBB",
"l. c gray82",
"z. c #A9A9A9",
"x. c #0E0E0E",
"c. c gray43",
"v. c gray18",
"b. c #B6B6B6",
"n. c #D2D2D2",
"m. c #686868",
"M. c #1E1E1E",
"N. c #444444",
"B. c #AEAEAE",
"V. c gray74",
"C. c #0B0B0B",
"Z. c #666565",
"A. c #DDDDDD",
"S. c #C4C3C3",
"D. c gray91",
"F. c gray21",
"G. c #0C0C0C",
"H. c #ADACAC",
"J. c gray78",
"K. c gray85",
"L. c gray93",
"P. c #9A9A9A",
"I. c gray7",
"U. c #AAAAAA",
"Y. c #585858",
"T. c #434343",
"R. c #A5A5A5",
"E. c #BBBABA",
"W. c #A7A6A6",
"Q. c #A5A4A3",
"!. c #AAA9A8",
"~. c #959595",
"^. c #555555",
"/. c gray64",
"(. c #C5C5C5",
"). c #ABAAAA",
"_. c #272727",
"`. c #4C4C4C",
"'. c #B3B1B1",
"]. c #C6C6C6",
"[. c #1B1B1B",
"{. c #8B8B8B",
"}. c #A7A7A7",
"|. c #CBCBCB",
" X c #E2E2E2",
".X c #5F5F5F",
"XX c gray23",
"oX c #5D5D5D",
"OX c #C5C4C4",
"+X c #ECECEC",
"@X c #797979",
"#X c #202020",
"$X c #191919",
"%X c #B6B5B5",
"&X c gray70",
"*X c #C6C5C5",
"=X c gray46",
"-X c #BAB9B9",
";X c gray58",
":X c #656565",
">X c gray8",
",X c gray59",
"<X c #8D8C8C",
"1X c #C8C7C7",
"2X c #C2C1C1",
"3X c LightGray",
"4X c gray54",
"5X c gray3",
/* pixels */
"                    . X o O + @ # $ % & *                       ",
"                    = - ; : > , < 1 2 3 4                       ",
"                  5 6 7 8 9 0 q w e r t y u                     ",
"                  i p a s d f g h j j w 0 k l                   ",
"                  z x c v ; b n m j e 1 M N B                   ",
"                  V C Z A S D O g $ F @ G H J                   ",
"                  K - L v P d I O t U M D Y                     ",
"                  * T R E W Q ! L ~ > > ^ /                     ",
"                    ( ) _ ` ' ] 8 [ { } | u                     ",
"                     .% ..[ X.o.O.+.@.#.$.%.                    ",
"                    &.*.=.-.; I ;.:.>.f ,.<.                    ",
"                    1.! 2.X.L 3.2 4.< + 5.6.*                   ",
"                  * 7...8.9.0.8 q.w.o.e.r.u                     ",
"                    t.y...u.A i.Z p.a...1.K                     ",
"                    K k s.5.d.O.;.M f.X g.                      ",
"                      h.y ] j.k.l.U z.) x.                      ",
"                      1.x o.S Z O :.G c..                       ",
"                      v.s.b.S +.;.:.n.m.M.                      ",
"                      N.B.' ,.V.0 :.:.! g.5                     ",
"                    C.Z.8 j.Q =.O >.A.>.o C.                    ",
"                    4 a.,.d.a S.U 2 D.# =.F.                    ",
"                * G.| 9 H.H.d J.K.D.L.$ F P.I.                  ",
"                x.6 U.' S Q k.> >.< w L.# G Y.x.                ",
"              . T.R.E.W.Q.!.; { 0 t , 3.M U ~.^.x.              ",
"          J %.X /.;.(.a ).j.] =.> :.n g F # @ z.T G.            ",
"        K _.`.R ;.b @.Q '.E.].O K.g 1 $ $ 4.# n #.^.[.          ",
"        i T.{.}.|.I b.a d : J.O K. X1 w L.$ D.A.{ .XXX          ",
"        J `.oX,.' @.+.2.p.OX> l.3.+ D.+XD.@ n.].}.@X#X          ",
"          $XY.] %XE S S ,.' &X] 8 2.S.*X(.I { (.,.=XY           ",
"          J T R f.k.O.%X9 ` a ` %X-X2.I J.0 O J.! ^.M.          ",
"            l Y.;Xd.j.' o.[ D L J.> G f 0 |.o.@.:X6 i           ",
"              >X.Xo ,X<X1X2Xf.(.1X0 3X>.g 4Xp `._.5X            "
};
