/* XPM */
static char *b33c310066894b79e7a8caac42b99536spixNtS491dooF2W[] = {
/* columns rows colors chars-per-pixel */
"32 32 217 2 ",
"   c white",
".  c gray97",
"X  c #F6F6F6",
"o  c #9A9A9B",
"O  c #6B6C6C",
"+  c #E7E8E8",
"@  c gray95",
"#  c #464646",
"$  c #313133",
"%  c gray82",
"&  c #F3F4F4",
"*  c #B4B4B5",
"=  c #3C3D3C",
"-  c #1D1D1E",
";  c #77787B",
":  c gray90",
">  c #F4F4F4",
",  c #888888",
"<  c #505051",
"1  c #1F1F20",
"2  c #141314",
"3  c #121112",
"4  c #1E1F21",
"5  c #39393A",
"6  c #606060",
"7  c #D8D8D8",
"8  c gray67",
"9  c #232323",
"0  c #0C0B0B",
"q  c gray4",
"w  c #0B0A0A",
"e  c #0B0B0B",
"r  c #19191A",
"t  c #737374",
"y  c #EFEFEF",
"u  c #E1E1E1",
"i  c gray29",
"p  c gray5",
"a  c #090909",
"s  c #0A0909",
"d  c #232324",
"f  c #B7B7B8",
"g  c gray53",
"h  c #111010",
"j  c gray3",
"k  c #090809",
"l  c gray88",
"z  c #AEAEAE",
"x  c #191919",
"c  c #0F0F10",
"v  c #696A6B",
"b  c #EEEEEF",
"n  c #F3F3F3",
"m  c #9D9D9D",
"M  c gray9",
"N  c #1B1B1B",
"B  c #333435",
"V  c #0E0E0F",
"C  c #57585A",
"Z  c gray96",
"A  c #C1C1C1",
"S  c #474848",
"D  c gray7",
"F  c #161617",
"G  c #2D2D30",
"H  c #898A8B",
"J  c gray89",
"K  c gray40",
"L  c #2D2D2D",
"P  c #151516",
"I  c #131314",
"U  c #141515",
"Y  c #0F1010",
"T  c #1F2021",
"R  c #404043",
"E  c #BABABB",
"W  c #F1F1F1",
"Q  c #BFBFBE",
"!  c #848484",
"~  c #131313",
"^  c #262627",
"/  c #0B0C0C",
"(  c gray34",
")  c gray68",
"_  c #E2E2E2",
"`  c gray81",
"'  c #151515",
"]  c #292928",
"[  c #747579",
"{  c gray6",
"}  c #868687",
"|  c #D0D0D0",
" . c #161717",
".. c #232223",
"X. c #646568",
"o. c #888889",
"O. c #CECECE",
"+. c #1F1E1F",
"@. c #515254",
"#. c #0C0C0D",
"$. c #848485",
"%. c #C6C6C6",
"&. c gray11",
"*. c #434345",
"=. c #0D0D0F",
"-. c #7B7B7D",
";. c #B9B8B8",
":. c #111111",
">. c #181818",
",. c #323234",
"<. c #6B6B6D",
"1. c #A5A5A5",
"2. c #28292A",
"3. c #0B0C0D",
"4. c #E9E9EA",
"5. c gray54",
"6. c #212123",
"7. c #0A0B0C",
"8. c #3C3C3E",
"9. c #DCDCDD",
"0. c #6D6D6D",
"q. c #09090A",
"w. c #0F1011",
"e. c #242427",
"r. c gray80",
"t. c #060707",
"y. c #080809",
"u. c #1D1E22",
"i. c #AEAEAF",
"p. c #CACACA",
"a. c #282828",
"s. c #060606",
"d. c #060607",
"f. c #070808",
"g. c #1C1D21",
"h. c #87888A",
"j. c gray94",
"k. c #909090",
"l. c #272727",
"z. c #070708",
"x. c #212125",
"c. c #58585B",
"v. c gray86",
"b. c #CDCECE",
"n. c #434344",
"m. c #29292A",
"M. c #202023",
"N. c #38393E",
"B. c #98989A",
"V. c #EEEEEE",
"C. c #545456",
"Z. c #535355",
"A. c #1D1D1D",
"S. c #0E0E0E",
"D. c #0C0D0D",
"F. c #101010",
"G. c #333439",
"H. c #5E616A",
"J. c #5F6166",
"K. c #D0D1D1",
"L. c gray60",
"P. c #545455",
"I. c #6A6A6D",
"U. c #5B5B5C",
"Y. c gray15",
"T. c #161616",
"R. c gray8",
"E. c #2E2F32",
"W. c #5E5F67",
"Q. c #5A5C64",
"!. c #696A6C",
"~. c gainsboro",
"^. c #B9B9B9",
"/. c gray21",
"(. c gray22",
"). c #3D3D3C",
"_. c #292827",
"`. c #171718",
"'. c #2B2B2E",
"]. c #3D3D42",
"[. c #35363A",
"{. c #7D7D7F",
"}. c gray",
"|. c #2A2A29",
" X c #131312",
".X c #070707",
"XX c #1F1E1E",
"oX c #1C1A1B",
"OX c #1B1B1C",
"+X c #7D7D7E",
"@X c #5D5D5D",
"#X c #2F2F2F",
"$X c gray14",
"%X c gray10",
"&X c #0D0D0C",
"*X c #111110",
"=X c #101111",
"-X c #18181A",
";X c #212224",
":X c #3D3D3F",
">X c #B7B7B7",
",X c #9F9F9E",
"<X c #4D4D4C",
"1X c #30302E",
"2X c #1E1E1C",
"3X c #121210",
"4X c #0D0C0B",
"5X c #0C0B09",
"6X c #0D0C0A",
"7X c #0C0C0A",
"8X c #0E0E0D",
"9X c gray20",
"0X c #626263",
"qX c #DDDDDD",
"wX c gray92",
"eX c #E3E4E3",
"rX c #E9E9E9",
/* pixels */
"      . . . . . . . . . . . . . . . . . . . . . . . . . .       ",
"      . . . . . . . . . . . X o O + . . . . . . . . . . .       ",
"      . . . . . . . . . . . @ # $ % . . . . . . . . . . .       ",
"      . . . . . . . . . . & * = - ; : X . . . . . . . . .       ",
"      . . . . . . . . > , < 1 2 3 4 5 6 7 . . . . . . . .       ",
"      . . . . . . . . . 8 9 0 q w e r t y . . . . . . . .       ",
"      . . . . . . . . . u i p a s q d f . . . . . . . . .       ",
"      . . . . . . . . . X g h j k e # l . . . . . . . . .       ",
"      . . . . . . . . . . z x e p c v b . . . . . . . . .       ",
"      . . . . . . . . . n m M N B V C u . . . . . . . . .       ",
"      . . . . . . . . Z A S N D F c G H b . . . . . . . .       ",
"      . . . . . . . . J K L P I U Y T R E . . . . . . . .       ",
"      . . . . . . . . W Q ! ~ D ^ / ( ) _ . . . . . . . .       ",
"      . . . . . . . . . . ` ' ] [ { } . . . . . . . . . .       ",
"      . . . . . . . . . . |  ...X.V o.. . . . . . . . . .       ",
"      . . . . . . . . . . O.' +.@.#.$.. . . . . . . . . .       ",
"      . . . . . . . . . . %.D &.*.=.-.. . . . . . . . . .       ",
"      . . . . . . . . . . ;.:.>.,.#.<.@ . . . . . . . . .       ",
"      . . . . . . . . . . 1.:.U 2.3.C 4.. . . . . . . . .       ",
"      . . . . . . . . . . 5.{ D 6.7.8.9.. . . . . . . . .       ",
"      . . . . . . . . . W 0.p q.w.q.e.r.. . . . . . . . .       ",
"      . . . . . . . . . _ i e t.y.y.u.i.. . . . . . . . .       ",
"      . . . . . . . . . p.a.e s.d.f.g.h.Z . . . . . . . .       ",
"      . . . . . . . . j.k.l.D k z.e x.c.v.. . . . . . . .       ",
"      . . . . . . . . b.n.m.D a j e M.N.B.Z . . . . . . .       ",
"      . . . . . . . V.5.C.Z.A.S.D.F.G.H.J.K.. . . . . . .       ",
"      . . . . . . j.L.P.I.U.Y.T.R.F E.W.Q.!.~.. . . . . .       ",
"      . . . . . . ^./.(.)._.>.P F F `.'.].[.{.W . . . . .       ",
"      . . . . . . }.|. X0 .XS.XXoX&..Xq F.OX+XW . . . . .       ",
"      . . . . . u @X#X$X%Xp &X*X{ =Xq c -X;X:X>X. . . . .       ",
"      . . . . . @ ,X<X1X2X3X4X5X6X7X8XD A.9X0XqX. . . . .       ",
"      . . . . . . . . . . Z wX: _ eXrXn . . . . . . . . .       "
};
