/* XPM */
static char *_519b026b39d4f9bcfdb088bcb98689bSXD2qbCqKlUIy5J0[] = {
/* columns rows colors chars-per-pixel */
"32 32 189 2 ",
"   c white",
".  c gray97",
"X  c #F6F6F6",
"o  c #968F8B",
"O  c #DAD8D8",
"+  c #CECAC8",
"@  c #342924",
"#  c #756E6C",
"$  c #F1F0EF",
"%  c #908884",
"&  c #2D221D",
"*  c #2F241F",
"=  c #E0DFDF",
"-  c #C5C0BE",
";  c #504541",
":  c #2A1D18",
">  c #352925",
",  c #605854",
"<  c #C8C3C1",
"1  c #2F2520",
"2  c #261A14",
"3  c #1D100A",
"4  c #514744",
"5  c #DDDAD9",
"6  c #968C89",
"7  c #23150F",
"8  c #453B37",
"9  c #B4B1B0",
"0  c #D4D2D1",
"q  c #524743",
"w  c #221510",
"e  c #88827F",
"r  c #E7E6E6",
"t  c #675F5C",
"y  c #3A3432",
"u  c #433F3E",
"i  c #2B211C",
"p  c #231712",
"a  c #908A87",
"s  c #78716E",
"d  c #3E3937",
"f  c #4B4B4A",
"g  c #2B211D",
"h  c #1C0E09",
"j  c #C4C0BF",
"k  c #B7B3B1",
"l  c #362F2D",
"z  c #4B4A4A",
"x  c #2A201C",
"c  c #261913",
"v  c #F3F2F2",
"b  c #F2F1F1",
"n  c #38302D",
"m  c #4A4949",
"M  c #291F1B",
"N  c #4B403B",
"B  c #C4C1C0",
"V  c #433834",
"C  c #48413E",
"Z  c #3A2E29",
"A  c #E9E9E8",
"S  c #C2BFBE",
"D  c #4F4642",
"F  c #403631",
"G  c #3D332F",
"H  c #2B1F1A",
"J  c #221611",
"K  c #59514D",
"L  c #DEDCDC",
"P  c #EAE9E9",
"I  c #9E9A98",
"U  c #352D2A",
"Y  c #201713",
"T  c #170E0A",
"R  c #362D2A",
"E  c #A19C9A",
"W  c gray93",
"Q  c #7A7572",
"!  c #5A5350",
"~  c #281F19",
"^  c #807B78",
"/  c #8C8885",
"(  c #6D6865",
")  c #2D241F",
"_  c #888380",
"`  c #888482",
"'  c #6F6A66",
"]  c #2D251F",
"[  c #78736F",
"{  c #817C7A",
"}  c #716D6A",
"|  c #2E2520",
" . c #625B57",
".. c #787370",
"X. c #75716E",
"o. c #2F2722",
"O. c #463F3A",
"+. c gray96",
"@. c #6C6663",
"#. c #312823",
"$. c #271D18",
"%. c #EEEEEE",
"&. c #615A57",
"*. c #7E7976",
"=. c #332A25",
"-. c #1C120C",
";. c #CAC9C8",
":. c #C3C1C0",
">. c #6A6461",
",. c #352D28",
"<. c #1D140E",
"1. c #8A8582",
"2. c #827D7A",
"3. c #7B7673",
"4. c #84807D",
"5. c #372F2A",
"6. c #1F150F",
"7. c #48403B",
"8. c #F3F3F3",
"9. c #E2E1E0",
"0. c #48413C",
"q. c #76706D",
"w. c #756F6C",
"e. c #362E29",
"r. c #201611",
"t. c #B8B5B4",
"y. c #A19B99",
"u. c #3C312C",
"i. c #6E6865",
"p. c #342A25",
"a. c #231812",
"s. c #1C100A",
"d. c #5C534E",
"f. c #DDDCDB",
"g. c #30231E",
"h. c #463C37",
"j. c #7B7472",
"k. c #706865",
"l. c #271A14",
"z. c #1E110B",
"x. c #1C0E08",
"c. c #AAA6A4",
"v. c #7D7572",
"b. c #3F3530",
"n. c #5E5652",
"m. c #6D6561",
"M. c #443934",
"N. c #291C16",
"B. c #1F110B",
"V. c #372B26",
"C. c #D2D0CF",
"Z. c #E2E0E0",
"A. c #3E332E",
"S. c #443A36",
"D. c #6C6562",
"F. c #86817F",
"G. c #726B68",
"H. c #453A35",
"J. c #281B15",
"K. c #AFAAA8",
"L. c #49403B",
"P. c #20140E",
"I. c #231811",
"U. c #2D231C",
"Y. c #271C15",
"T. c #1F140D",
"R. c #1C0F08",
"E. c #190D06",
"W. c #190D05",
"Q. c #2D211B",
"!. c #9F9A98",
"~. c #AFABA9",
"^. c #5A504C",
"/. c #4D423E",
"(. c #463B36",
"). c #3F342E",
"_. c #352A24",
"`. c #312620",
"'. c #2E221C",
"]. c #392D28",
"[. c #4C413D",
"{. c #89827F",
"}. c #EBEAEA",
"|. c #E6E5E4",
" X c #E3E2E2",
".X c #E3E2E1",
"XX c #E5E4E3",
"oX c #E9E8E8",
"OX c gray94",
/* pixels */
"            . . . . . . . . . X . . . . . . . . . .             ",
"            . . . . . . . . X o O . . . . . . . . .             ",
"            . . . . . . . . + @ # . . . . . . . . .             ",
"            . . . . . . . $ % & * = . . . . . . . .             ",
"            . . . . . . . - ; : > , . . . . . . . .             ",
"            . . . . . . . < 1 2 3 4 . . . . . . . .             ",
"            . . . . . . . 5 6 7 8 9 . . . . . . . .             ",
"            . . . . . . . 0 q * w e r . . . . . . .             ",
"            . . . . . . X t y u i p a . . . . . . .             ",
"            . . . . . . . s d f g h j . . . . . . .             ",
"            . . . . . . . k l z x c v . . . . . . .             ",
"            . . . . . . . b n m M N . . . . . . . .             ",
"            . . . . . . . B V C : Z A . . . . . . .             ",
"            . . . . . . S D F G H J K L . . . . . .             ",
"            . . . . . . P I U Y T R E W . . . . . .             ",
"            . . . . . . . . Q ! ~ ^ . . . . . . . .             ",
"            . . . . . . . . / ( ) _ . . . . . . . .             ",
"            . . . . . . . . ` ' ] [ . . . . . . . .             ",
"            . . . . . . . . { } |  .. . . . . . . .             ",
"            . . . . . . . X ..X.o.O.. . . . . . . .             ",
"            . . . . . . . +.@.Q #.$.+.. . . . . . .             ",
"            . . . . . . . %.&.*.=.-.;.. . . . . . .             ",
"            . . . . . . . :.>.{ ,.<.1.. . . . . . .             ",
"            . . . . . . . 2.3.4.5.6.7.8.. . . . . .             ",
"            . . . . . . 9.0.q.w.e.r.6.t.. . . . . .             ",
"            . . . . . . y.u.*.i.p.a.s.d.. . . . . .             ",
"            . . . . . f.g.h.j.k.Z l.z.x.c.. . . . .             ",
"            . . . . 8.v.b.n.q.m.M.N.B.x.V.C.. . . .             ",
"            . . . . Z.A.S.D.F.G.H.J.B.x.x.K.. . . .             ",
"            . . . . S L.P.I.U.Y.T.R.E.W.Q.!.. . . .             ",
"            . . . . ~.^./.(.)._.`.'.`.].[.{.. . . .             ",
"            . . . . . . v }.|. X.XXXoXOX. . . . . .             "
};
